<svg width="744" height="300" viewBox="0 0 744 300" fill="none" xmlns="http://www.w3.org/2000/svg">
<circle cx="150" cy="150" r="140" stroke="url(#paint0_linear_7_15)" stroke-width="20"/>
<path d="M28.6583 89.1307C70.0796 89.0922 221 69.5001 221 131.5C221 182.5 127.421 174.462 86 174.5" stroke="url(#paint1_linear_7_15)" stroke-width="20"/>
<path d="M111 134.584L138.5 134.584L189.562 236.891L161 227L111 134.584Z" fill="#0BD3FF"/>
<path d="M503.321 246V232.909H507.489V246H503.321ZM505.409 231.384C504.824 231.384 504.321 231.19 503.901 230.804C503.48 230.412 503.27 229.94 503.27 229.389C503.27 228.844 503.48 228.378 503.901 227.991C504.321 227.599 504.824 227.403 505.409 227.403C506 227.403 506.503 227.599 506.918 227.991C507.338 228.378 507.548 228.844 507.548 229.389C507.548 229.94 507.338 230.412 506.918 230.804C506.503 231.19 506 231.384 505.409 231.384ZM514.309 238.534V246H510.141V232.909H514.104V235.312H514.249C514.539 234.511 515.033 233.884 515.732 233.429C516.431 232.969 517.263 232.739 518.229 232.739C519.15 232.739 519.948 232.946 520.624 233.361C521.306 233.77 521.835 234.344 522.21 235.082C522.59 235.815 522.778 236.673 522.772 237.656V246H518.604V238.474C518.61 237.747 518.425 237.179 518.05 236.77C517.681 236.361 517.167 236.156 516.508 236.156C516.07 236.156 515.684 236.253 515.349 236.446C515.019 236.634 514.763 236.903 514.582 237.256C514.406 237.608 514.315 238.034 514.309 238.534ZM537.582 232.909L533.091 246H528.318L523.835 232.909H528.224L530.636 241.926H530.773L533.193 232.909H537.582ZM544.878 246.247C543.509 246.247 542.327 245.977 541.332 245.438C540.344 244.892 539.582 244.116 539.048 243.111C538.52 242.099 538.256 240.898 538.256 239.506C538.256 238.153 538.523 236.972 539.057 235.96C539.591 234.943 540.344 234.153 541.315 233.591C542.287 233.023 543.432 232.739 544.75 232.739C545.682 232.739 546.534 232.884 547.307 233.173C548.08 233.463 548.747 233.892 549.31 234.46C549.872 235.028 550.31 235.73 550.622 236.565C550.935 237.395 551.091 238.347 551.091 239.42V240.46H539.713V238.04H547.213C547.207 237.597 547.102 237.202 546.898 236.855C546.693 236.509 546.412 236.239 546.054 236.045C545.702 235.847 545.295 235.747 544.835 235.747C544.369 235.747 543.952 235.852 543.582 236.062C543.213 236.267 542.92 236.548 542.705 236.906C542.489 237.259 542.375 237.659 542.364 238.108V240.571C542.364 241.105 542.469 241.574 542.679 241.977C542.889 242.375 543.188 242.685 543.574 242.906C543.96 243.128 544.42 243.239 544.955 243.239C545.324 243.239 545.659 243.187 545.96 243.085C546.261 242.983 546.52 242.832 546.736 242.634C546.952 242.435 547.114 242.19 547.222 241.901L551.048 242.011C550.889 242.869 550.54 243.616 550 244.253C549.466 244.884 548.764 245.375 547.895 245.727C547.026 246.074 546.02 246.247 544.878 246.247ZM564.648 236.906L560.822 237.009C560.782 236.736 560.674 236.494 560.498 236.284C560.322 236.068 560.092 235.901 559.808 235.781C559.529 235.656 559.205 235.594 558.836 235.594C558.353 235.594 557.941 235.69 557.6 235.884C557.265 236.077 557.1 236.338 557.106 236.668C557.1 236.923 557.202 237.145 557.413 237.332C557.629 237.52 558.012 237.67 558.563 237.784L561.086 238.261C562.393 238.511 563.364 238.926 564.001 239.506C564.643 240.085 564.967 240.852 564.972 241.807C564.967 242.705 564.7 243.486 564.171 244.151C563.648 244.815 562.933 245.332 562.023 245.702C561.114 246.065 560.075 246.247 558.904 246.247C557.035 246.247 555.56 245.864 554.481 245.097C553.407 244.324 552.793 243.29 552.64 241.994L556.756 241.892C556.847 242.369 557.083 242.733 557.464 242.983C557.844 243.233 558.33 243.358 558.921 243.358C559.455 243.358 559.89 243.259 560.225 243.06C560.56 242.861 560.731 242.597 560.737 242.267C560.731 241.972 560.6 241.736 560.344 241.56C560.089 241.378 559.688 241.236 559.143 241.134L556.859 240.699C555.546 240.46 554.569 240.02 553.927 239.378C553.285 238.73 552.967 237.906 552.972 236.906C552.967 236.031 553.2 235.284 553.671 234.665C554.143 234.04 554.813 233.562 555.683 233.233C556.552 232.903 557.577 232.739 558.759 232.739C560.532 232.739 561.93 233.111 562.952 233.855C563.975 234.594 564.54 235.611 564.648 236.906ZM574.413 232.909V235.977H566.155V232.909H574.413ZM567.885 229.773H572.053V241.884C572.053 242.139 572.092 242.347 572.172 242.506C572.257 242.659 572.379 242.77 572.538 242.838C572.697 242.901 572.888 242.932 573.109 242.932C573.268 242.932 573.436 242.918 573.612 242.889C573.794 242.855 573.93 242.827 574.021 242.804L574.652 245.812C574.453 245.869 574.172 245.94 573.808 246.026C573.45 246.111 573.021 246.165 572.521 246.188C571.544 246.233 570.706 246.119 570.007 245.847C569.314 245.568 568.783 245.136 568.413 244.551C568.05 243.966 567.874 243.23 567.885 242.344V229.773ZM576.54 246V232.909H580.503V235.312H580.648C580.92 234.517 581.381 233.889 582.028 233.429C582.676 232.969 583.449 232.739 584.347 232.739C585.256 232.739 586.034 232.972 586.682 233.438C587.33 233.903 587.741 234.528 587.918 235.312H588.054C588.298 234.534 588.776 233.912 589.486 233.446C590.196 232.974 591.034 232.739 592 232.739C593.239 232.739 594.244 233.136 595.017 233.932C595.79 234.722 596.176 235.807 596.176 237.188V246H592.009V238.142C592.009 237.489 591.841 236.991 591.506 236.651C591.17 236.304 590.736 236.131 590.202 236.131C589.628 236.131 589.176 236.318 588.847 236.693C588.523 237.062 588.361 237.56 588.361 238.185V246H584.355V238.099C584.355 237.491 584.19 237.011 583.861 236.659C583.531 236.307 583.097 236.131 582.557 236.131C582.193 236.131 581.872 236.219 581.594 236.395C581.315 236.565 581.097 236.81 580.938 237.128C580.784 237.446 580.707 237.821 580.707 238.253V246H576.54ZM604.878 246.247C603.509 246.247 602.327 245.977 601.332 245.438C600.344 244.892 599.582 244.116 599.048 243.111C598.52 242.099 598.256 240.898 598.256 239.506C598.256 238.153 598.523 236.972 599.057 235.96C599.591 234.943 600.344 234.153 601.315 233.591C602.287 233.023 603.432 232.739 604.75 232.739C605.682 232.739 606.534 232.884 607.307 233.173C608.08 233.463 608.747 233.892 609.31 234.46C609.872 235.028 610.31 235.73 610.622 236.565C610.935 237.395 611.091 238.347 611.091 239.42V240.46H599.713V238.04H607.213C607.207 237.597 607.102 237.202 606.898 236.855C606.693 236.509 606.412 236.239 606.054 236.045C605.702 235.847 605.295 235.747 604.835 235.747C604.369 235.747 603.952 235.852 603.582 236.062C603.213 236.267 602.92 236.548 602.705 236.906C602.489 237.259 602.375 237.659 602.364 238.108V240.571C602.364 241.105 602.469 241.574 602.679 241.977C602.889 242.375 603.188 242.685 603.574 242.906C603.96 243.128 604.42 243.239 604.955 243.239C605.324 243.239 605.659 243.187 605.96 243.085C606.261 242.983 606.52 242.832 606.736 242.634C606.952 242.435 607.114 242.19 607.222 241.901L611.048 242.011C610.889 242.869 610.54 243.616 610 244.253C609.466 244.884 608.764 245.375 607.895 245.727C607.026 246.074 606.02 246.247 604.878 246.247ZM617.387 238.534V246H613.219V232.909H617.183V235.312H617.327C617.617 234.511 618.112 233.884 618.81 233.429C619.509 232.969 620.342 232.739 621.308 232.739C622.228 232.739 623.026 232.946 623.702 233.361C624.384 233.77 624.913 234.344 625.288 235.082C625.668 235.815 625.856 236.673 625.85 237.656V246H621.683V238.474C621.688 237.747 621.504 237.179 621.129 236.77C620.759 236.361 620.245 236.156 619.586 236.156C619.148 236.156 618.762 236.253 618.427 236.446C618.097 236.634 617.842 236.903 617.66 237.256C617.484 237.608 617.393 238.034 617.387 238.534ZM635.82 232.909V235.977H627.561V232.909H635.82ZM629.291 229.773H633.459V241.884C633.459 242.139 633.499 242.347 633.578 242.506C633.663 242.659 633.786 242.77 633.945 242.838C634.104 242.901 634.294 242.932 634.516 242.932C634.675 242.932 634.842 242.918 635.018 242.889C635.2 242.855 635.337 242.827 635.428 242.804L636.058 245.812C635.859 245.869 635.578 245.94 635.214 246.026C634.857 246.111 634.428 246.165 633.928 246.188C632.95 246.233 632.112 246.119 631.413 245.847C630.72 245.568 630.189 245.136 629.82 244.551C629.456 243.966 629.28 243.23 629.291 242.344V229.773ZM643.102 250.909V232.909H647.227V235.151H647.355C647.526 234.753 647.767 234.369 648.08 234C648.398 233.631 648.801 233.33 649.29 233.097C649.784 232.858 650.375 232.739 651.062 232.739C651.972 232.739 652.821 232.977 653.611 233.455C654.406 233.932 655.048 234.668 655.537 235.662C656.026 236.656 656.27 237.923 656.27 239.463C656.27 240.946 656.034 242.188 655.562 243.188C655.097 244.188 654.466 244.938 653.67 245.438C652.881 245.938 652.003 246.188 651.037 246.188C650.378 246.188 649.807 246.08 649.324 245.864C648.841 245.648 648.435 245.364 648.105 245.011C647.781 244.659 647.531 244.281 647.355 243.878H647.27V250.909H643.102ZM647.185 239.455C647.185 240.159 647.278 240.773 647.466 241.295C647.659 241.818 647.935 242.224 648.293 242.514C648.656 242.798 649.091 242.94 649.597 242.94C650.108 242.94 650.543 242.798 650.901 242.514C651.259 242.224 651.528 241.818 651.71 241.295C651.898 240.773 651.991 240.159 651.991 239.455C651.991 238.75 651.898 238.139 651.71 237.622C651.528 237.105 651.259 236.705 650.901 236.42C650.548 236.136 650.114 235.994 649.597 235.994C649.085 235.994 648.651 236.134 648.293 236.412C647.935 236.69 647.659 237.088 647.466 237.605C647.278 238.122 647.185 238.739 647.185 239.455ZM662.621 228.545V246H658.454V228.545H662.621ZM668.964 246.222C668.129 246.222 667.388 246.082 666.74 245.804C666.098 245.52 665.589 245.094 665.214 244.526C664.845 243.952 664.661 243.233 664.661 242.369C664.661 241.642 664.788 241.028 665.044 240.528C665.3 240.028 665.652 239.622 666.101 239.31C666.55 238.997 667.067 238.761 667.652 238.602C668.237 238.437 668.862 238.327 669.527 238.27C670.271 238.202 670.871 238.131 671.325 238.057C671.78 237.977 672.109 237.866 672.314 237.724C672.524 237.577 672.629 237.369 672.629 237.102V237.06C672.629 236.622 672.479 236.284 672.178 236.045C671.876 235.807 671.47 235.688 670.959 235.688C670.408 235.688 669.964 235.807 669.629 236.045C669.294 236.284 669.081 236.614 668.99 237.034L665.146 236.898C665.26 236.102 665.553 235.392 666.024 234.767C666.501 234.136 667.155 233.642 667.984 233.284C668.82 232.92 669.822 232.739 670.993 232.739C671.828 232.739 672.598 232.838 673.303 233.037C674.007 233.23 674.621 233.514 675.143 233.889C675.666 234.259 676.07 234.713 676.354 235.253C676.643 235.793 676.788 236.409 676.788 237.102V246H672.868V244.176H672.766C672.533 244.619 672.234 244.994 671.871 245.301C671.513 245.608 671.089 245.838 670.601 245.991C670.118 246.145 669.572 246.222 668.964 246.222ZM670.251 243.494C670.7 243.494 671.104 243.403 671.462 243.222C671.825 243.04 672.115 242.79 672.331 242.472C672.547 242.148 672.655 241.773 672.655 241.347V240.102C672.536 240.165 672.391 240.222 672.22 240.273C672.055 240.324 671.874 240.372 671.675 240.418C671.476 240.463 671.271 240.503 671.061 240.537C670.851 240.571 670.649 240.602 670.456 240.631C670.064 240.693 669.729 240.79 669.45 240.92C669.178 241.051 668.967 241.222 668.82 241.432C668.678 241.636 668.607 241.881 668.607 242.165C668.607 242.597 668.76 242.926 669.067 243.153C669.379 243.381 669.774 243.494 670.251 243.494ZM686.726 232.909V235.977H678.467V232.909H686.726ZM680.197 229.773H684.365V241.884C684.365 242.139 684.405 242.347 684.484 242.506C684.57 242.659 684.692 242.77 684.851 242.838C685.01 242.901 685.2 242.932 685.422 242.932C685.581 242.932 685.749 242.918 685.925 242.889C686.107 242.855 686.243 242.827 686.334 242.804L686.964 245.812C686.766 245.869 686.484 245.94 686.121 246.026C685.763 246.111 685.334 246.165 684.834 246.188C683.857 246.233 683.018 246.119 682.32 245.847C681.626 245.568 681.095 245.136 680.726 244.551C680.362 243.966 680.186 243.23 680.197 242.344V229.773ZM696.293 232.909V235.977H687.872V232.909H696.293ZM689.628 246V232.244C689.628 231.233 689.818 230.395 690.199 229.73C690.58 229.06 691.108 228.56 691.784 228.23C692.46 227.895 693.241 227.727 694.128 227.727C694.707 227.727 695.253 227.773 695.764 227.864C696.281 227.949 696.665 228.026 696.915 228.094L696.25 231.145C696.097 231.094 695.909 231.051 695.688 231.017C695.472 230.983 695.267 230.966 695.074 230.966C694.585 230.966 694.25 231.074 694.068 231.29C693.886 231.506 693.795 231.801 693.795 232.176V246H689.628ZM703.987 246.247C702.612 246.247 701.43 245.966 700.441 245.403C699.458 244.835 698.7 244.045 698.165 243.034C697.637 242.017 697.373 240.838 697.373 239.497C697.373 238.151 697.637 236.972 698.165 235.96C698.7 234.943 699.458 234.153 700.441 233.591C701.43 233.023 702.612 232.739 703.987 232.739C705.362 232.739 706.54 233.023 707.523 233.591C708.512 234.153 709.271 234.943 709.799 235.96C710.333 236.972 710.6 238.151 710.6 239.497C710.6 240.838 710.333 242.017 709.799 243.034C709.271 244.045 708.512 244.835 707.523 245.403C706.54 245.966 705.362 246.247 703.987 246.247ZM704.012 243.102C704.512 243.102 704.935 242.949 705.282 242.642C705.629 242.335 705.893 241.909 706.075 241.364C706.262 240.818 706.356 240.187 706.356 239.472C706.356 238.744 706.262 238.108 706.075 237.562C705.893 237.017 705.629 236.591 705.282 236.284C704.935 235.977 704.512 235.824 704.012 235.824C703.495 235.824 703.058 235.977 702.7 236.284C702.347 236.591 702.077 237.017 701.89 237.562C701.708 238.108 701.617 238.744 701.617 239.472C701.617 240.187 701.708 240.818 701.89 241.364C702.077 241.909 702.347 242.335 702.7 242.642C703.058 242.949 703.495 243.102 704.012 243.102ZM712.735 246V232.909H716.783V235.295H716.92C717.158 234.432 717.548 233.79 718.087 233.369C718.627 232.943 719.255 232.73 719.971 232.73C720.164 232.73 720.363 232.744 720.567 232.773C720.772 232.795 720.962 232.832 721.138 232.884V236.506C720.94 236.437 720.678 236.384 720.354 236.344C720.036 236.304 719.752 236.284 719.502 236.284C719.008 236.284 718.562 236.395 718.164 236.616C717.772 236.832 717.462 237.136 717.235 237.528C717.013 237.915 716.903 238.369 716.903 238.892V246H712.735ZM722.837 246V232.909H726.8V235.312H726.945C727.217 234.517 727.678 233.889 728.325 233.429C728.973 232.969 729.746 232.739 730.643 232.739C731.553 232.739 732.331 232.972 732.979 233.438C733.626 233.903 734.038 234.528 734.214 235.312H734.351C734.595 234.534 735.072 233.912 735.783 233.446C736.493 232.974 737.331 232.739 738.297 232.739C739.536 232.739 740.541 233.136 741.314 233.932C742.087 234.722 742.473 235.807 742.473 237.188V246H738.305V238.142C738.305 237.489 738.138 236.991 737.803 236.651C737.467 236.304 737.033 236.131 736.499 236.131C735.925 236.131 735.473 236.318 735.143 236.693C734.82 237.062 734.658 237.56 734.658 238.185V246H730.652V238.099C730.652 237.491 730.487 237.011 730.158 236.659C729.828 236.307 729.393 236.131 728.854 236.131C728.49 236.131 728.169 236.219 727.891 236.395C727.612 236.565 727.393 236.81 727.234 237.128C727.081 237.446 727.004 237.821 727.004 238.253V246H722.837Z" fill="#0BD3FF"/>
<path d="M307.045 246V176.182H329.273V246H307.045ZM318.182 168.045C315.061 168.045 312.379 167.015 310.136 164.955C307.894 162.864 306.773 160.348 306.773 157.409C306.773 154.5 307.894 152.015 310.136 149.955C312.379 147.864 315.061 146.818 318.182 146.818C321.333 146.818 324.015 147.864 326.227 149.955C328.47 152.015 329.591 154.5 329.591 157.409C329.591 160.348 328.47 162.864 326.227 164.955C324.015 167.015 321.333 168.045 318.182 168.045ZM376.011 247.318C368.678 247.318 362.375 245.818 357.102 242.818C351.86 239.788 347.814 235.576 344.966 230.182C342.148 224.758 340.739 218.47 340.739 211.318C340.739 204.136 342.148 197.848 344.966 192.455C347.814 187.03 351.86 182.818 357.102 179.818C362.375 176.788 368.678 175.273 376.011 175.273C383.345 175.273 389.633 176.788 394.875 179.818C400.148 182.818 404.193 187.03 407.011 192.455C409.86 197.848 411.284 204.136 411.284 211.318C411.284 218.47 409.86 224.758 407.011 230.182C404.193 235.576 400.148 239.788 394.875 242.818C389.633 245.818 383.345 247.318 376.011 247.318ZM376.148 230.545C378.814 230.545 381.072 229.727 382.92 228.091C384.769 226.455 386.178 224.182 387.148 221.273C388.148 218.364 388.648 215 388.648 211.182C388.648 207.303 388.148 203.909 387.148 201C386.178 198.091 384.769 195.818 382.92 194.182C381.072 192.545 378.814 191.727 376.148 191.727C373.39 191.727 371.057 192.545 369.148 194.182C367.269 195.818 365.83 198.091 364.83 201C363.86 203.909 363.375 207.303 363.375 211.182C363.375 215 363.86 218.364 364.83 221.273C365.83 224.182 367.269 226.455 369.148 228.091C371.057 229.727 373.39 230.545 376.148 230.545ZM444.898 206.182V246H422.67V176.182H443.807V189H444.58C446.125 184.727 448.761 181.379 452.489 178.955C456.216 176.5 460.655 175.273 465.807 175.273C470.716 175.273 474.973 176.379 478.58 178.591C482.216 180.773 485.034 183.833 487.034 187.773C489.064 191.682 490.064 196.258 490.034 201.5V246H467.807V205.864C467.837 201.985 466.852 198.955 464.852 196.773C462.883 194.591 460.14 193.5 456.625 193.5C454.292 193.5 452.231 194.015 450.443 195.045C448.686 196.045 447.322 197.485 446.352 199.364C445.413 201.242 444.928 203.515 444.898 206.182Z" fill="#0BD3FF"/>
<defs>
<linearGradient id="paint0_linear_7_15" x1="38" y1="150" x2="270.5" y2="416.5" gradientUnits="userSpaceOnUse">
<stop stop-color="#0BD3FF"/>
<stop offset="0.698465" stop-color="#3E60AA" stop-opacity="0.301535"/>
<stop offset="1" stop-color="#552E86" stop-opacity="0"/>
</linearGradient>
<linearGradient id="paint1_linear_7_15" x1="28.6969" y1="130.634" x2="280" y2="216" gradientUnits="userSpaceOnUse">
<stop stop-color="#0BD3FF"/>
<stop offset="1" stop-color="#552E86" stop-opacity="0"/>
</linearGradient>
</defs>
</svg>
